<?xml version="1.0" encoding="UTF-8" standalone="no"?><!-- Generator: Gravit.io --><svg xmlns="http://www.w3.org/2000/svg" xmlns:xlink="http://www.w3.org/1999/xlink" style="isolation:isolate" viewBox="0 0 24 24" width="24pt" height="24pt"><defs><clipPath id="_clipPath_WXcqh7AhLdLTxciVLzQtgfMEcg1WF7Cd"><rect width="24" height="24"/></clipPath></defs><g clip-path="url(#_clipPath_WXcqh7AhLdLTxciVLzQtgfMEcg1WF7Cd)"><path class="burger-bottom" d="M 5 11 L 19 11 C 19.552 11 20 11.448 20 12 L 20 12 C 20 12.552 19.552 13 19 13 L 5 13 C 4.448 13 4 12.552 4 12 L 4 12 C 4 11.448 4.448 11 5 11 Z" style="stroke-miterlimit:10;"/><path class="burger-middle" d="M 3 11 L 21 11 C 21.552 11 22 11.448 22 12 L 22 12 C 22 12.552 21.552 13 21 13 L 3 13 C 2.448 13 2 12.552 2 12 L 2 12 C 2 11.448 2.448 11 3 11 Z" style="stroke-miterlimit:10;"/><path class="burger-top" d="M 5 11 L 19 11 C 19.552 11 20 11.448 20 12 L 20 12 C 20 12.552 19.552 13 19 13 L 5 13 C 4.448 13 4 12.552 4 12 L 4 12 C 4 11.448 4.448 11 5 11 Z" style="stroke-miterlimit:10;"/></g></svg>