<?xml version="1.0" encoding="utf-8"?>
<!-- Generator: Adobe Illustrator 16.0.0, SVG Export Plug-In . SVG Version: 6.00 Build 0)  -->
<!DOCTYPE svg PUBLIC "-//W3C//DTD SVG 1.1//EN" "http://www.w3.org/Graphics/SVG/1.1/DTD/svg11.dtd">
<svg version="1.1" id="envelope" xmlns="http://www.w3.org/2000/svg" xmlns:xlink="http://www.w3.org/1999/xlink" x="0px" y="0px"
	 width="40px" height="48px" viewBox="0.042 -7.979 40 48" enable-background="new 0.042 -7.979 40 48" xml:space="preserve">
<g>
	<g id="flap-back">
		
			<polyline id="flap-surface_3_" fill="#FFFFFF" stroke="#000000" stroke-width="2" stroke-linecap="round" stroke-linejoin="round" stroke-miterlimit="10" points="
			34.091,5.527 20.042,17.513 5.995,5.527 		"/>
		
			<line id="flap-fold_3_" fill="#FFFFFF" stroke="#000000" stroke-width="2" stroke-linecap="round" stroke-linejoin="round" stroke-miterlimit="10" x1="5.995" y1="5.527" x2="34.091" y2="5.527"/>
	</g>
	<g id="paper">
		
			<polyline id="page" fill="#FFFFFF" stroke="#000000" stroke-width="2" stroke-linecap="round" stroke-linejoin="round" stroke-miterlimit="10" points="
			32.084,25.631 32.084,7.286 8.002,7.286 8.002,25.631 		"/>
		<g id="letter">
			<path d="M24.326,19.345h-1.548v-0.647c-0.2,0.279-0.436,0.483-0.707,0.612c-0.271,0.129-0.596,0.193-0.975,0.193
				c-0.863,0-1.559-0.31-2.088-0.932c-0.529-0.621-0.793-1.442-0.793-2.463c0-1.016,0.263-1.833,0.79-2.452s1.224-0.928,2.092-0.928
				c0.374,0,0.703,0.064,0.987,0.193c0.285,0.129,0.516,0.317,0.695,0.564v-0.324c0-0.716-0.196-1.269-0.588-1.658
				c-0.392-0.39-0.952-0.584-1.678-0.584c-1.095,0-1.989,0.481-2.681,1.445c-0.692,0.963-1.038,2.216-1.038,3.758
				c0,1.616,0.4,2.901,1.2,3.857c0.8,0.955,1.866,1.434,3.197,1.434c0.421,0,0.829-0.062,1.224-0.186
				c0.395-0.125,0.773-0.311,1.137-0.557l0.727,1.389c-0.427,0.289-0.891,0.507-1.394,0.651c-0.503,0.146-1.041,0.218-1.615,0.218
				c-1.842,0-3.311-0.613-4.406-1.84s-1.642-2.882-1.642-4.966c0-2.037,0.492-3.667,1.477-4.891
				c0.984-1.224,2.287-1.836,3.908-1.836c1.147,0,2.054,0.346,2.72,1.039c0.666,0.692,0.999,1.636,0.999,2.83V19.345z
				 M22.857,16.108c0-0.595-0.134-1.061-0.403-1.397c-0.268-0.337-0.637-0.505-1.105-0.505c-0.469,0-0.836,0.168-1.102,0.505
				c-0.266,0.336-0.399,0.803-0.399,1.397c0,0.6,0.133,1.068,0.399,1.405s0.633,0.505,1.102,0.505c0.468,0,0.837-0.168,1.105-0.505
				C22.723,17.176,22.857,16.708,22.857,16.108z"/>
		</g>
	</g>
	<g id="envelopebody">
		
			<polygon id="envelope_front" fill="#FFFFFF" stroke="#000000" stroke-width="2" stroke-linecap="round" stroke-linejoin="round" stroke-miterlimit="10" points="
			34.091,6.056 20.042,16.855 5.995,6.056 5.995,25.854 34.091,25.854 		"/>
		<g>
			<polyline fill="#FFFFFF" points="34.091,24.3 22.153,14.772 17.924,14.777 5.995,24.3 			"/>
			<path d="M5.996,26.516c-0.292,0-0.582-0.162-0.767-0.466c-0.313-0.511-0.224-1.228,0.2-1.604L17.36,13.856
				c0.163-0.145,0.359-0.225,0.562-0.225l4.229-0.006h0.001c0.204,0,0.403,0.077,0.566,0.223l11.937,10.598
				c0.423,0.377,0.512,1.094,0.201,1.604c-0.312,0.508-0.908,0.617-1.334,0.243L21.841,15.918l-3.602,0.006L6.56,26.293
				C6.39,26.444,6.191,26.516,5.996,26.516z"/>
		</g>
	</g>
	<g id="flap-front">
		
			<polyline id="flap-surface" fill="#FFFFFF" stroke="#000000" stroke-width="2" stroke-linecap="round" stroke-linejoin="round" stroke-miterlimit="10" points="
			34.091,5.527 20.042,17.513 5.995,5.527 		"/>
		
			<line id="flap-fold" fill="#FFFFFF" stroke="#000000" stroke-width="2" stroke-linecap="round" stroke-linejoin="round" stroke-miterlimit="10" x1="5.995" y1="5.527" x2="34.091" y2="5.527"/>
	</g>
</g>
</svg>
