<?xml version="1.0" encoding="utf-8"?>
<!-- Generator: Adobe Illustrator 16.0.0, SVG Export Plug-In . SVG Version: 6.00 Build 0)  -->
<!DOCTYPE svg PUBLIC "-//W3C//DTD SVG 1.1//EN" "http://www.w3.org/Graphics/SVG/1.1/DTD/svg11.dtd">
<svg version="1.1" id="envelope" xmlns="http://www.w3.org/2000/svg" xmlns:xlink="http://www.w3.org/1999/xlink" x="0px" y="0px"
	 width="32px" height="24px" viewBox="0.011 18.562 32 24" enable-background="new 0.011 18.562 32 24" xml:space="preserve">
<g>
	<g id="flap-back">
		
			<polyline id="flap-surface_3_" fill="#FFFFFF" stroke="#000000" stroke-width="2" stroke-linecap="round" stroke-linejoin="round" stroke-miterlimit="10" points="
			30.06,21.277 16.011,33.264 1.964,21.277 		"/>
		
			<line id="flap-fold_3_" fill="none" stroke="#000000" stroke-width="2" stroke-linecap="round" stroke-linejoin="round" stroke-miterlimit="10" x1="1.964" y1="21.277" x2="30.06" y2="21.277"/>
	</g>
	<g id="paper">
		
			<polyline id="page" fill="#FFFFFF" stroke="#000000" stroke-width="2" stroke-linecap="round" stroke-linejoin="round" stroke-miterlimit="10" points="
			28.053,39.922 28.053,21.578 3.971,21.578 3.971,39.922 		"/>
		<g id="letter">
			<path d="M20.295,33.637h-1.549V32.99c-0.199,0.277-0.436,0.482-0.707,0.611c-0.271,0.129-0.596,0.193-0.975,0.193
				c-0.863,0-1.559-0.311-2.088-0.934c-0.529-0.619-0.793-1.441-0.793-2.463c0-1.016,0.263-1.832,0.79-2.451
				c0.527-0.619,1.224-0.928,2.093-0.928c0.373,0,0.702,0.064,0.986,0.193c0.285,0.129,0.516,0.316,0.695,0.562v-0.322
				c0-0.717-0.196-1.27-0.588-1.658c-0.393-0.391-0.953-0.584-1.678-0.584c-1.096,0-1.99,0.48-2.682,1.445
				c-0.692,0.963-1.038,2.215-1.038,3.758c0,1.615,0.4,2.9,1.2,3.855c0.8,0.955,1.866,1.436,3.197,1.436
				c0.42,0,0.828-0.062,1.224-0.188s0.772-0.311,1.137-0.557l0.728,1.389c-0.428,0.289-0.891,0.508-1.395,0.652
				c-0.503,0.145-1.041,0.217-1.615,0.217c-1.841,0-3.311-0.613-4.405-1.84c-1.095-1.227-1.642-2.881-1.642-4.965
				c0-2.037,0.492-3.668,1.477-4.893c0.984-1.223,2.287-1.836,3.908-1.836c1.146,0,2.054,0.348,2.72,1.039
				c0.666,0.693,0.999,1.637,0.999,2.83V33.637z M18.827,30.398c0-0.594-0.135-1.061-0.403-1.396s-0.638-0.504-1.104-0.504
				c-0.47,0-0.836,0.168-1.103,0.504c-0.266,0.336-0.399,0.803-0.399,1.396c0,0.602,0.133,1.068,0.399,1.406
				c0.267,0.336,0.633,0.504,1.103,0.504c0.467,0,0.836-0.168,1.104-0.504C18.692,31.467,18.827,31,18.827,30.398z"/>
		</g>
	</g>
	<g id="envelopebody">
		
			<polygon id="envelope_front" fill="#FFFFFF" stroke="#000000" stroke-width="2" stroke-linecap="round" stroke-linejoin="round" stroke-miterlimit="10" points="
			30.06,21.104 16.011,31.902 1.964,21.104 1.964,40.9 30.06,40.9 		"/>
		<g>
			<polyline fill="#FFFFFF" points="30.06,39.347 18.122,29.818 13.893,29.824 1.964,39.347 			"/>
			<path d="M1.965,41.562c-0.292,0-0.582-0.162-0.767-0.466c-0.313-0.511-0.224-1.228,0.2-1.604l11.931-10.59
				c0.163-0.145,0.359-0.225,0.562-0.225l4.229-0.006h0.002c0.203,0,0.402,0.077,0.565,0.223l11.936,10.598
				c0.424,0.378,0.513,1.095,0.201,1.604c-0.312,0.509-0.907,0.617-1.334,0.243L17.81,30.965l-3.602,0.006L2.529,41.34
				C2.359,41.49,2.16,41.562,1.965,41.562z"/>
		</g>
	</g>
	<g id="flap-front">
		
			<polyline id="flap-surface" fill="#FFFFFF" stroke="#000000" stroke-width="2" stroke-linecap="round" stroke-linejoin="round" stroke-miterlimit="10" points="
			1.939,20.633 15.987,8.647 30.033,20.633 		"/>
		
			<line id="flap-fold" fill="none" stroke="#000000" stroke-width="2" stroke-linecap="round" stroke-linejoin="round" stroke-miterlimit="10" x1="30.033" y1="20.633" x2="1.939" y2="20.633"/>
	</g>
</g>
</svg>
