<?xml version="1.0" encoding="utf-8"?>
<!-- Generator: Adobe Illustrator 16.0.0, SVG Export Plug-In . SVG Version: 6.00 Build 0)  -->
<!DOCTYPE svg PUBLIC "-//W3C//DTD SVG 1.1//EN" "http://www.w3.org/Graphics/SVG/1.1/DTD/svg11.dtd">
<svg version="1.1" id="Layer_1" xmlns="http://www.w3.org/2000/svg" xmlns:xlink="http://www.w3.org/1999/xlink" x="0px" y="0px"
	 width="64px" height="64px" viewBox="0 0 64 64" enable-background="new 0 0 64 64" xml:space="preserve">
<g>
	<path fill="#FFFFFF" d="M32,63C14.907,63,1,49.093,1,32S14.907,1,32,1s31,13.907,31,31S49.093,63,32,63z"/>
	<path d="M32,2c16.542,0,30,13.458,30,30S48.542,62,32,62S2,48.542,2,32S15.458,2,32,2 M32,0C14.326,0,0,14.326,0,32
		s14.326,32,32,32s32-14.326,32-32S49.674,0,32,0L32,0z"/>
</g>
<g>
	
		<polyline id="envelope_back" fill="#FFFFFF" stroke="#000000" stroke-width="2" stroke-linecap="round" stroke-linejoin="round" stroke-miterlimit="10" points="
		15.364,27.167 15.364,45.25 48.637,45.25 48.637,27.167 	"/>
	
		<polyline id="flap" fill="#FFFFFF" stroke="#000000" stroke-width="2" stroke-linecap="round" stroke-linejoin="round" stroke-miterlimit="10" points="
		48.637,27.167 32,14.75 15.364,27.167 	"/>
	<g id="paper">
		
			<polyline fill="#FFFFFF" stroke="#000000" stroke-width="2" stroke-linecap="round" stroke-linejoin="round" stroke-miterlimit="10" points="
			46.259,36.932 46.259,18.85 17.741,18.85 17.741,36.932 		"/>
		
			<line fill="none" stroke="#000000" stroke-width="2" stroke-linecap="round" stroke-linejoin="round" stroke-miterlimit="10" x1="22.493" y1="33.645" x2="41.506" y2="33.645"/>
		
			<line fill="none" stroke="#000000" stroke-width="2" stroke-linecap="round" stroke-linejoin="round" stroke-miterlimit="10" x1="22.493" y1="23.88" x2="41.506" y2="23.88"/>
		
			<line fill="none" stroke="#000000" stroke-width="2" stroke-linecap="round" stroke-linejoin="round" stroke-miterlimit="10" x1="22.493" y1="28.634" x2="41.506" y2="28.634"/>
	</g>
	
		<polygon id="envelope_front" fill="#FFFFFF" stroke="#000000" stroke-width="2" stroke-linecap="round" stroke-linejoin="round" stroke-miterlimit="10" points="
		48.637,27.167 32,37.029 15.364,27.167 15.364,45.25 48.637,45.25 	"/>
</g>
</svg>
