<?xml version="1.0" encoding="utf-8"?>
<!-- Generator: Adobe Illustrator 16.0.0, SVG Export Plug-In . SVG Version: 6.00 Build 0)  -->
<!DOCTYPE svg PUBLIC "-//W3C//DTD SVG 1.1//EN" "http://www.w3.org/Graphics/SVG/1.1/DTD/svg11.dtd">
<svg version="1.1" id="face" xmlns="http://www.w3.org/2000/svg" xmlns:xlink="http://www.w3.org/1999/xlink" x="0px" y="0px"
	 width="48.002px" height="72px" viewBox="0 0 48.002 72" enable-background="new 0 0 48.002 72" xml:space="preserve">
<title  id="logoTitle">Jeff's home page</title>
<path class="logo__img--eyebrows" d="M18.193,28.489c0.494-0.406,0.354-4.233-0.422-4.722c-0.775-0.488-10.707,3.906-10.927,5.293
	c-0.219,1.385,0.711,2,1.025,2.181c0.172,0.097,2.925-1.652,5.671-2.427C15.82,28.173,18.193,28.489,18.193,28.489z"/>
<path class="logo__img--eyebrows" d="M32.645,22.625c-0.988,0.489-1.412,3.99-0.846,4.643c0.307,0.357,3.555,0.527,6.057,1.383
	c2.054,0.699,3.428,2.151,3.809,2.091c0.845-0.136,1.411-1.358,1.411-2.173c0-0.387-2.113-2.18-4.582-3.5
	C35.755,23.604,32.645,22.625,32.645,22.625z"/>
<path d="M43.855,10.226C31.646-0.747,18.704-0.448,19.003,0.329c0.562,1.466,0.513,4.34-1.604,4.34
	c-1.417,0-8.708-2.551-8.525-0.915c0.199,1.793,0.061,3.309-0.219,3.504C7.125,8.315,2.869,8.886,3.023,9.237
	c0.584,1.332-2.763,7.609-2.971,11.727c-0.405,8.142,1.68,15.937,2.194,17.235C3.022,40.156,4.533,72,24.227,72
	C42.695,72,44.787,44.639,45.4,40.375c0.348-2.415,2.416-9.639,2.591-16.646C48.127,18.342,47.029,13.08,43.855,10.226z
	 M43.818,40.669c0,0-3.073,13-4.312,14.783c-1.309-1.216-4.24-3.483-6.854-4.3c-2.615-0.812-6.528-2.027-6.528-2.027l-1.159,2.68
	c0,0,10.986,1.864,11.794,3.041c0.806,1.174-1.089,10.463-12.427,10.463c-6.146,0-12.159-7.537-11.06-11.932
	c0.779-3.105,10.953-1.604,10.953-1.604l-0.842-2.89c0,0-7.653,0.685-9.269,1.354c-1.615,0.672-3.792,3.138-3.792,3.138
	S4.524,41.764,4.06,38.107C3.594,34.445,0.713,20.58,6.902,14.717c7.634-7.234,33.89-2.36,36.609,2.969
	C46.184,22.924,43.818,40.669,43.818,40.669z"/>
<path class="logo__img--glasses" d="M44.126,31.997c0,0-2.415-1.248-10.041-1.312c-6.396-0.056-7.675,1.858-7.675,1.858
	s-0.781-0.041-1.787-0.049c-0.584-0.003-1.645,0.106-1.999-0.005c-0.84-0.264-1.092-1.643-8.102-1.859
	c-7.011-0.218-9.513,1.059-9.513,1.059l-1.987,0.81v1.948l1.787,0.158c0,0,0.711,0.217,1.043,0.875
	c0.331,0.654,0.663,6.199,1.892,7.832c0.48,0.639,1.045,1.922,4.883,2.141c3.835,0.22,6.809,0.088,8.195-2.518
	c2.035-3.83,1.086-7.49,3.646-7.547c2.557-0.057,2.037,6.18,4.543,8.807c2.516,2.625,10.473,0.982,11.705,0
	c1.23-0.984,1.988-7.133,2.555-8.225c0.571-1.093,0.901-1.093,0.901-1.093l1.679-0.353v-2.109L44.126,31.997z M21.625,37.521
	c-0.445,2.535-2.023,5.603-3.029,6.23c-1.563,0.986-8.906,1.531-10.042-0.982c-0.944-2.086-1.721-6.518,0-9.022
	c1.125-1.64,3.269-1.858,6.205-1.808c3.246,0.062,5.222,0.66,6.159,1.861C21.854,35.003,21.752,36.816,21.625,37.521z
	 M40.249,42.771c-1.134,2.518-8.479,1.972-10.04,0.983c-1.009-0.631-2.581-3.696-3.029-6.233c-0.129-0.705-0.23-2.517,0.709-3.719
	c0.936-1.203,2.912-1.8,6.155-1.861c2.938-0.051,5.081,0.168,6.205,1.808C41.973,36.252,41.193,40.684,40.249,42.771z"/>
</svg>
