<?xml version="1.0" encoding="utf-8"?>
<!-- Generator: Adobe Illustrator 16.0.0, SVG Export Plug-In . SVG Version: 6.00 Build 0)  -->
<!DOCTYPE svg PUBLIC "-//W3C//DTD SVG 1.1//EN" "http://www.w3.org/Graphics/SVG/1.1/DTD/svg11.dtd">
<svg version="1.1" id="face" xmlns="http://www.w3.org/2000/svg" xmlns:xlink="http://www.w3.org/1999/xlink" x="0px" y="0px"
	 width="48.002px" height="72px" viewBox="12.501 48.5 48.002 72" enable-background="new 12.501 48.5 48.002 72"
	 xml:space="preserve">
<title  id="logoTitle">Cartoon of Jeff&apos;s face</title>
<desc  id="logoDesc">Vector illustration of Jeff&apos;s face, acting as brand logo and link to home page.</desc>
<path id="_x3C_brow-l_x3E_" d="M30.693,76.989c0.494-0.406,0.354-4.233-0.422-4.723c-0.775-0.488-10.706,3.906-10.926,5.294
	c-0.219,1.385,0.711,2,1.025,2.181c0.172,0.097,2.925-1.652,5.67-2.427C28.32,76.673,30.693,76.989,30.693,76.989z"/>
<path id="_x3C_brow-r_x3E_" d="M45.144,71.125c-0.988,0.489-1.412,3.99-0.846,4.643c0.307,0.357,3.555,0.527,6.057,1.383
	c2.054,0.699,3.428,2.151,3.809,2.091c0.845-0.136,1.411-1.358,1.411-2.173c0-0.387-2.113-2.181-4.582-3.501
	C48.254,72.104,45.144,71.125,45.144,71.125z"/>
<path id="_x3C_hair_x3E_" d="M56.353,58.726c-12.216-10.973-25.164-10.674-24.865-9.896c0.562,1.466,0.513,4.34-1.605,4.34
	c-1.416,0-8.711-2.551-8.529-0.915c0.199,1.793,0.062,3.31-0.219,3.504c-1.529,1.058-5.787,1.628-5.633,1.979
	c0.584,1.332-2.765,7.609-2.973,11.727c-0.405,8.142,3.694,51.036,24.187,51.036c20.426,0,23.602-41.264,23.776-48.271
	C60.626,66.842,59.527,61.58,56.353,58.726z M52,103.952c-4.673-5.991-13.388-6.327-13.388-6.327l-1.16,2.68
	c0,0,10.991,1.864,11.8,3.041c0.806,1.174-1.09,10.463-12.433,10.463c-6.149,0-12.164-7.537-11.065-11.932
	c0.779-3.105,10.958-1.604,10.958-1.604l-0.842-2.89c0,0-7.784-1.603-13.068,4.492c-5.363-5.453-10.327-31.607-3.422-38.659
	c7.639-7.233,33.907-2.36,36.626,2.97C58.682,71.424,57.461,91.551,52,103.952z"/>
<path id="_x3C_Glasses_x3E_" d="M56.625,80.497c0,0-2.415-1.248-10.041-1.312c-6.395-0.056-7.674,1.858-7.674,1.858
	s-0.781-0.041-1.787-0.049c-0.584-0.003-1.645,0.106-1.999-0.005c-0.84-0.264-1.092-1.643-8.102-1.859
	c-7.011-0.218-9.513,1.059-9.513,1.059l-1.987,0.81v1.948l1.787,0.158c0,0,0.71,0.217,1.042,0.875
	c0.331,0.654,0.663,6.199,1.892,7.832c0.48,0.639,1.045,1.922,4.882,2.141c3.835,0.22,6.809,0.088,8.195-2.518
	c2.035-3.83,1.086-7.49,3.646-7.547c2.557-0.057,2.037,6.18,4.543,8.807c2.515,2.625,10.472,0.982,11.704,0
	c1.23-0.984,1.988-7.133,2.555-8.225c0.571-1.093,0.901-1.093,0.901-1.093l1.679-0.353v-2.109L56.625,80.497z M34.125,86.021
	c-0.445,2.535-2.023,5.603-3.029,6.23c-1.563,0.986-8.905,1.531-10.041-0.982c-0.944-2.086-1.721-6.518,0-9.022
	c1.125-1.64,3.269-1.858,6.205-1.808c3.245,0.062,5.221,0.66,6.158,1.861C34.354,83.503,34.252,85.316,34.125,86.021z
	 M52.748,91.271c-1.134,2.518-8.479,1.972-10.039,0.983c-1.009-0.631-2.581-3.696-3.029-6.233c-0.129-0.705-0.23-2.517,0.709-3.719
	c0.936-1.203,2.912-1.8,6.154-1.861c2.938-0.051,5.081,0.168,6.205,1.808C54.472,84.752,53.692,89.184,52.748,91.271z"/>
</svg>
