<?xml version="1.0" encoding="utf-8"?>
<!-- Generator: Adobe Illustrator 16.0.0, SVG Export Plug-In . SVG Version: 6.00 Build 0)  -->
<!DOCTYPE svg PUBLIC "-//W3C//DTD SVG 1.1//EN" "http://www.w3.org/Graphics/SVG/1.1/DTD/svg11.dtd">
<svg version="1.1" id="Layer_1" xmlns="http://www.w3.org/2000/svg" xmlns:xlink="http://www.w3.org/1999/xlink" x="0px" y="0px"
	 width="48px" height="72px" viewBox="0 0 48 72" enable-background="new 0 0 48 72" xml:space="preserve">
<path id="_x3C_brow-l_x3E_" d="M18.192,28.489c0.494-0.406,0.354-4.233-0.422-4.723c-0.775-0.488-10.706,3.906-10.926,5.294
	c-0.219,1.385,0.711,2,1.025,2.181c0.172,0.097,2.925-1.652,5.67-2.427C15.819,28.173,18.192,28.489,18.192,28.489z"/>
<path id="_x3C_brow-r_x3E_" d="M32.643,22.625c-0.988,0.489-1.412,3.99-0.846,4.643c0.307,0.357,3.555,0.527,6.057,1.383
	c2.054,0.699,3.428,2.151,3.809,2.091c0.845-0.136,1.411-1.358,1.411-2.173c0-0.387-2.113-2.181-4.582-3.501
	C35.753,23.604,32.643,22.625,32.643,22.625z"/>
<path d="M43.852,10.226C31.636-0.747,18.688-0.448,18.986,0.329c0.562,1.466,0.513,4.34-1.605,4.34
	c-1.416,0-8.711-2.551-8.529-0.915c0.199,1.793,0.062,3.31-0.219,3.504C7.103,8.315,2.845,8.886,2.999,9.237
	c0.584,1.332-2.765,7.609-2.973,11.727C-0.378,29.105,3.72,72,24.213,72c20.426,0,23.602-41.264,23.776-48.271
	C48.125,18.342,47.026,13.08,43.852,10.226z M6.879,14.717c7.639-7.233,33.907-2.36,36.626,2.97
	c1.229,2.405,1.633,7.953,1.185,14.448l-0.566-0.138c0,0-2.415-1.248-10.041-1.312c-6.395-0.056-7.674,1.858-7.674,1.858
	s-0.781-0.041-1.787-0.049c-0.584-0.003-1.645,0.106-1.999-0.005c-0.84-0.264-1.092-1.643-8.102-1.859
	c-7.011-0.218-9.513,1.059-9.513,1.059l-1.281,0.522C3.073,24.93,3.773,17.89,6.879,14.717z M40.247,42.771
	c-1.134,2.518-8.479,1.972-10.039,0.983c-1.009-0.631-2.581-3.696-3.029-6.233c-0.129-0.705-0.23-2.517,0.709-3.719
	c0.936-1.203,2.912-1.8,6.154-1.861c2.938-0.051,5.081,0.168,6.205,1.808C41.971,36.252,41.191,40.684,40.247,42.771z
	 M21.624,37.521c-0.445,2.535-2.023,5.603-3.029,6.23c-1.563,0.986-8.905,1.531-10.041-0.982c-0.944-2.086-1.721-6.518,0-9.022
	c1.125-1.64,3.269-1.858,6.205-1.808c3.245,0.062,5.221,0.66,6.158,1.861C21.853,35.003,21.751,36.816,21.624,37.521z
	 M26.111,49.125l-1.16,2.68c0,0,10.991,1.864,11.8,3.041c0.806,1.174-1.09,10.463-12.433,10.463
	c-6.149,0-12.164-7.537-11.065-11.932c0.779-3.105,10.958-1.604,10.958-1.604l-0.842-2.89c0,0-7.784-1.603-13.068,4.492
	c-2.694-2.739-5.286-10.703-6.325-18.844l0.833,0.074c0,0,0.71,0.217,1.042,0.875c0.331,0.654,0.663,6.199,1.892,7.832
	c0.48,0.639,1.045,1.922,4.882,2.141c3.835,0.22,6.809,0.088,8.195-2.518c2.035-3.83,1.086-7.49,3.646-7.547
	c2.557-0.057,2.037,6.18,4.543,8.807c2.515,2.625,10.472,0.982,11.704,0c1.23-0.984,1.988-7.133,2.555-8.225
	c0.571-1.093,0.901-1.093,0.901-1.093l0.29-0.061c-0.708,6.996-2.348,14.7-4.962,20.635C34.826,49.461,26.111,49.125,26.111,49.125z
	"/>
</svg>
