<?xml version="1.0" encoding="utf-8"?>
<!-- Generator: Adobe Illustrator 16.0.0, SVG Export Plug-In . SVG Version: 6.00 Build 0)  -->
<!DOCTYPE svg PUBLIC "-//W3C//DTD SVG 1.1//EN" "http://www.w3.org/Graphics/SVG/1.1/DTD/svg11.dtd">
<svg 
role="img"
              aria-labelledby="logoTitle logoDesc"
							version="1.1" id="Layer_1" xmlns="http://www.w3.org/2000/svg" xmlns:xlink="http://www.w3.org/1999/xlink" x="0px" y="0px"
	 width="48.002px" height="72px" viewBox="7.999 9.5 48.002 72" enable-background="new 7.999 9.5 48.002 72" xml:space="preserve">
	 <title id="logoTitle">Cartoon of Jeff's face</title>
            <desc id="logoDesc">Vector illustration of Jeff's face, acting as brand logo and link to home page.</desc>
<g>
	<path d="M26.193,37.989c0.494-0.406,0.354-4.233-0.423-4.722c-0.775-0.488-10.706,3.906-10.926,5.293
		c-0.219,1.386,0.711,2.001,1.025,2.181c0.172,0.097,2.925-1.652,5.671-2.427C23.819,37.673,26.193,37.989,26.193,37.989z"/>
	<path d="M40.643,32.125c-0.988,0.489-1.411,3.99-0.845,4.642c0.307,0.358,3.555,0.528,6.057,1.383
		c2.053,0.7,3.427,2.152,3.808,2.091c0.845-0.136,1.411-1.358,1.411-2.172c0-0.387-2.113-2.181-4.582-3.501
		C43.754,33.104,40.643,32.125,40.643,32.125z"/>
	<path d="M51.854,19.726C39.645,8.753,26.703,9.052,27.002,9.829c0.562,1.466,0.512,4.34-1.604,4.34
		c-1.417,0-8.708-2.551-8.526-0.915c0.199,1.793,0.061,3.309-0.219,3.504c-1.529,1.057-5.785,1.628-5.631,1.979
		c0.584,1.332-2.763,7.609-2.971,11.727C7.646,38.605,9.731,46.4,10.245,47.699C11.021,49.656,12.532,81.5,32.226,81.5
		c18.468,0,20.56-27.361,21.174-31.625c0.347-2.415,2.415-9.638,2.59-16.646C56.126,27.842,55.029,22.58,51.854,19.726z
		 M51.817,50.169c0,0-3.073,13-4.312,14.783c-1.309-1.216-4.24-3.483-6.853-4.299c-2.616-0.812-6.529-2.028-6.529-2.028l-1.159,2.68
		c0,0,10.986,1.864,11.794,3.04c0.806,1.175-1.089,10.464-12.427,10.464c-6.146,0-12.159-7.537-11.06-11.932
		c0.779-3.105,10.952-1.603,10.952-1.603l-0.841-2.89c0,0-7.653,0.684-9.269,1.355c-1.615,0.671-3.792,3.137-3.792,3.137
		s-5.798-11.612-6.262-15.269c-0.466-3.661-3.347-17.527,2.842-23.39c7.634-7.234,33.89-2.36,36.609,2.969
		C54.182,32.424,51.817,50.169,51.817,50.169z"/>
	<path d="M52.125,41.497c0,0-2.415-1.248-10.041-1.312c-6.396-0.055-7.675,1.859-7.675,1.859s-0.781-0.041-1.787-0.049
		c-0.584-0.003-1.644,0.107-1.999-0.005c-0.84-0.263-1.092-1.643-8.102-1.859c-7.011-0.218-9.513,1.059-9.513,1.059l-1.987,0.809
		v1.948l1.787,0.159c0,0,0.711,0.216,1.043,0.875c0.331,0.654,0.663,6.199,1.892,7.832c0.48,0.638,1.045,1.921,4.883,2.14
		c3.835,0.22,6.808,0.088,8.195-2.517c2.035-3.831,1.086-7.491,3.647-7.547c2.557-0.057,2.037,6.179,4.543,8.807
		c2.515,2.625,10.473,0.982,11.705,0c1.231-0.985,1.988-7.133,2.555-8.225c0.571-1.093,0.901-1.093,0.901-1.093l1.679-0.353v-2.109
		L52.125,41.497z M29.624,47.021c-0.446,2.535-2.023,5.603-3.029,6.231c-1.564,0.986-8.906,1.531-10.042-0.982
		c-0.944-2.087-1.721-6.518,0-9.023c1.125-1.64,3.269-1.858,6.205-1.807c3.246,0.061,5.221,0.66,6.159,1.861
		C29.852,44.503,29.751,46.316,29.624,47.021z M48.248,52.271c-1.134,2.518-8.479,1.972-10.04,0.984
		c-1.009-0.631-2.581-3.696-3.03-6.233c-0.128-0.705-0.23-2.517,0.709-3.719c0.936-1.203,2.913-1.8,6.156-1.862
		c2.938-0.05,5.081,0.169,6.205,1.808C49.971,45.752,49.193,50.184,48.248,52.271z"/>
</g>
</svg>
