<?xml version="1.0" encoding="utf-8"?>
<!-- Generator: Adobe Illustrator 16.0.0, SVG Export Plug-In . SVG Version: 6.00 Build 0)  -->
<!DOCTYPE svg PUBLIC "-//W3C//DTD SVG 1.1//EN" "http://www.w3.org/Graphics/SVG/1.1/DTD/svg11.dtd">
<svg version="1.1" id="user" xmlns="http://www.w3.org/2000/svg" xmlns:xlink="http://www.w3.org/1999/xlink" x="0px" y="0px"
	 width="72px" height="72px" viewBox="0.5 144.5 72 72" enable-background="new 0.5 144.5 72 72" xml:space="preserve">
<circle opacity="0.6" fill="#AEEAFF" cx="19.5" cy="169.5" r="9"/>
<path fill="#15354C" d="M22.5,176c-5.79,0-10.5-4.71-10.5-10.5S16.71,155,22.5,155S33,159.71,33,165.5S28.29,176,22.5,176z
	 M22.5,158c-4.136,0-7.5,3.364-7.5,7.5s3.364,7.5,7.5,7.5s7.5-3.364,7.5-7.5S26.636,158,22.5,158z"/>
<g opacity="0.6">
	<path fill="#FFC88D" d="M65.5,202.5h-35v-7.628c0-5.196,4.228-9.423,9.423-9.423h16.154c5.196,0,9.423,4.227,9.423,9.423V202.5z"/>
</g>
<g opacity="0.6">
	<path fill="#AEEAFF" d="M36.5,204.5h-35v-7.628c0-5.196,4.228-9.423,9.423-9.423h16.154c5.196,0,9.423,4.227,9.423,9.423V204.5z"/>
</g>
<circle opacity="0.6" fill="#FFC88D" cx="47.5" cy="167.5" r="9"/>
<path fill="#15354C" d="M50.5,174c-5.79,0-10.5-4.71-10.5-10.5S44.71,153,50.5,153S61,157.71,61,163.5S56.29,174,50.5,174z
	 M50.5,156c-4.136,0-7.5,3.364-7.5,7.5s3.364,7.5,7.5,7.5s7.5-3.364,7.5-7.5S54.636,156,50.5,156z"/>
<g>
	<path fill="#15354C" d="M59.5,181h-15c-0.9,0-1.77,0.11-2.6,0.32c1.06,0.72,1.979,1.63,2.71,2.68H59.5c4.14,0,7.5,3.36,7.5,7.5v5.5
		H46.5v3H70v-8.5C70,185.71,65.29,181,59.5,181z"/>
</g>
<g>
	<path fill="#15354C" d="M42,202H3v-8.5c0-5.79,4.71-10.5,10.5-10.5h18c5.79,0,10.5,4.71,10.5,10.5V202z M6,199h33v-5.5
		c0-4.136-3.364-7.5-7.5-7.5h-18c-4.136,0-7.5,3.364-7.5,7.5V199z"/>
</g>
<g>
	<path fill="#15354C" d="M42,202H3v-8.5c0-5.79,4.71-10.5,10.5-10.5h18c5.79,0,10.5,4.71,10.5,10.5V202z M6,199h33v-5.5
		c0-4.136-3.364-7.5-7.5-7.5h-18c-4.136,0-7.5,3.364-7.5,7.5V199z"/>
</g>
</svg>
