<?xml version="1.0" encoding="utf-8"?>
<!-- Generator: Adobe Illustrator 16.0.0, SVG Export Plug-In . SVG Version: 6.00 Build 0)  -->
<!DOCTYPE svg PUBLIC "-//W3C//DTD SVG 1.1//EN" "http://www.w3.org/Graphics/SVG/1.1/DTD/svg11.dtd">
<svg version="1.1" id="user" xmlns="http://www.w3.org/2000/svg" xmlns:xlink="http://www.w3.org/1999/xlink" x="0px" y="0px"
	 width="72px" height="72px" viewBox="0.5 144.5 72 72" enable-background="new 0.5 144.5 72 72" xml:space="preserve">
<g>
	<rect x="81.334" y="98.667" fill="#F383FF" width="44.166" height="59.833"/>
</g>
<g>
	<path fill="#15354C" d="M85,88.333v67h47v-67H85z M129,147.833H88v-52h41V147.833z"/>
</g>
<g>
	<circle fill="#FFFFFF" cx="108.5" cy="151.833" r="2"/>
</g>
<g>
	<path fill="#FFFFFF" d="M113.5,92.833c0,0.553-0.447,1-1,1h-8c-0.553,0-1-0.447-1-1l0,0c0-0.553,0.447-1,1-1h8
		C113.053,91.833,113.5,92.28,113.5,92.833L113.5,92.833z"/>
</g>
<g>
	<path fill="#15354C" d="M125.75,129.083h-34.5v-24.5h34.5V129.083z M93.75,126.583h29.5v-19.5h-29.5V126.583z"/>
</g>
<g>
	<g>
		<path fill="#15354C" d="M91.25,143.583v4.25h2.5v-1.75h29.5v1.75h2.5v-4.25H91.25z"/>
	</g>
</g>
<g>
	<circle fill="#15354C" cx="92.5" cy="133.833" r="2"/>
</g>
<g>
	<circle fill="#15354C" cx="124.5" cy="99.833" r="2"/>
</g>
<g>
	<circle fill="#15354C" cx="118.5" cy="99.833" r="2"/>
</g>
<g>
	<circle fill="#15354C" cx="112.5" cy="99.833" r="2"/>
</g>
<g>
	<rect x="96.5" y="132.833" fill="#15354C" width="28" height="2"/>
</g>
<g>
	<rect x="96.5" y="136.833" fill="#15354C" width="20" height="2"/>
</g>
<path fill="#15354C" d="M142.68,143.01v0.205l0.021,0.029C142.689,143.175,142.68,143.085,142.68,143.01z"/>
<path fill="#15354C" d="M145.543,149.183c-0.126-0.146-0.216-0.32-0.255-0.516L145.543,149.183z"/>
<g>
	<polygon fill="#FFFFFF" points="132.554,129.367 134.021,140.944 131.645,147.072 115.523,149.117 112.048,143.731 
		110.076,128.186 114.572,128.422 113.221,117.767 117.615,117.209 118.866,127.071 123.387,127.506 123.392,127.545 
		127.912,127.979 128.059,129.131 	"/>
	<path fill="#15354C" d="M132.009,128.015l-0.216-0.022l-3.371-0.32l-0.009-0.069l-4.415-0.424l-0.005-0.04l-4.418-0.424
		l-1.112-8.771c-0.132-0.593-0.686-0.986-1.296-0.909l-3.896,0.494c-0.649,0.082-1.104,0.674-1.022,1.32l1.146,9.044l-2.946-0.157
		l-0.029,0.004c-0.071-0.001-0.138-0.002-0.217,0.008c-0.649,0.082-1.105,0.671-1.023,1.321l1.898,14.964
		c0.009,0.074,0.03,0.162,0.05,0.229l0.012,0.029l0.271,0.416l2.966,4.599c0.001,0.011,0.001,0.011,0.001,0.011l0.318,0.479
		c0.247,0.235,0.587,0.359,0.954,0.312l15.594-1.978c0.319-0.04,0.604-0.213,0.791-0.444l0.236-0.62c0,0-0.001-0.011,0.006-0.021
		l2.015-5.17c0.008-0.011,0.017-0.023,0.016-0.033l0.167-0.465c0.01-0.01,0.01-0.01,0.008-0.021
		c0.018-0.099,0.016-0.199,0.004-0.294l-1.527-12.038C132.892,128.503,132.494,128.109,132.009,128.015z M132.51,141.047
		l-0.268,0.675l0.001,0.01l-1.604,4.134l0.001,0.01l-0.146,0.382l-14.566,1.848l-0.209-0.331l-2.32-3.592l-0.415-0.639
		l-1.752-13.811l2.413,0.127l0.965,7.608c0.064,0.513,0.5,0.871,0.992,0.858l0.194-0.025c0.461-0.098,0.782-0.512,0.764-0.98
		l-2.276-17.948l2.354-0.299l1.677,13.217c0.146,0.395,0.526,0.664,0.959,0.646l0.2-0.025c0.432-0.093,0.741-0.469,0.773-0.896
		l-0.42-3.313l2.422,0.234l0.314,2.472c0.112,0.49,0.567,0.825,1.08,0.76c0.535-0.067,0.917-0.559,0.848-1.101l-0.241-1.9
		l2.422,0.232l0.174,1.37c0.057,0.442,0.392,0.773,0.814,0.84l0.57-0.072c0.348-0.164,0.575-0.517,0.564-0.919l-0.12-0.949
		l2.15,0.197l0.271,0.027L132.51,141.047z"/>
	<path fill="#15354C" d="M128.23,131.536c-0.081,0.041-0.188,0.073-0.282,0.085c-0.098,0.013-0.195,0.017-0.288-0.013
		L128.23,131.536z"/>
	<path fill="#15354C" d="M128.793,130.521c0.005,0.035,0.009,0.065,0.002,0.096l-0.024-0.193
		C128.784,130.451,128.789,130.491,128.793,130.521z"/>
	<path fill="#15354C" d="M122.538,131.214l0.025,0.193c-0.014-0.027-0.018-0.058-0.022-0.093
		C122.537,131.284,122.532,131.244,122.538,131.214z"/>
	<path fill="#15354C" d="M118.256,131.834l0.059,0.456c-0.029-0.073-0.05-0.15-0.06-0.226
		C118.245,131.985,118.246,131.905,118.256,131.834z"/>
	<path fill="#15354C" d="M119.474,132.911c-0.034,0.018-0.064,0.021-0.103,0.026c-0.03,0.004-0.07,0.009-0.098-0.001
		L119.474,132.911z"/>
	<path fill="#15354C" d="M120.242,131.812c0.008,0.065,0.007,0.136,0.005,0.202l-0.051-0.397
		C120.215,131.676,120.233,131.743,120.242,131.812z"/>
	<path fill="#15354C" d="M115.797,138.301c-0.029,0.015-0.067,0.02-0.095,0.023c-0.029,0.004-0.069,0.009-0.1,0.002L115.797,138.301
		z"/>
	<path fill="#15354C" d="M116.558,137.222c0.003,0.028,0.009,0.068,0.003,0.099l-0.025-0.193
		C116.549,137.152,116.554,137.192,116.558,137.222z"/>
	<path fill="#15354C" d="M118.487,118.058c0.006,0.04,0.011,0.078,0.005,0.119l-0.029-0.233
		C118.479,117.982,118.483,118.021,118.487,118.058z"/>
</g>
<circle fill="#FFB864" cx="33.5" cy="165.5" r="12"/>
<path fill="#15354C" d="M36.5,176c-7.444,0-13.5-6.056-13.5-13.5S29.056,149,36.5,149c7.444,0,13.5,6.056,13.5,13.5
	S43.944,176,36.5,176z M36.5,152c-5.79,0-10.5,4.71-10.5,10.5S30.71,173,36.5,173c5.79,0,10.5-4.71,10.5-10.5S42.29,152,36.5,152z"
	/>
<rect x="2.5" y="188.5" fill="#FFD45A" width="24" height="24"/>
<path fill="#15354C" d="M32,210H5v-27h27V210z M8,207h21v-21H8V207z"/>
<polygon fill="#9FFFE4" points="37.445,211.931 50.973,188.5 64.5,211.931 "/>
<path fill="#15354C" d="M70.152,210h-32.25l16.125-27.931L70.152,210z M43.098,207h21.859l-10.93-18.931L43.098,207z"/>
</svg>
