<?xml version="1.0" encoding="utf-8"?>
<!-- Generator: Adobe Illustrator 16.0.0, SVG Export Plug-In . SVG Version: 6.00 Build 0)  -->
<!DOCTYPE svg PUBLIC "-//W3C//DTD SVG 1.1//EN" "http://www.w3.org/Graphics/SVG/1.1/DTD/svg11.dtd">
<svg version="1.1" id="sliders" xmlns="http://www.w3.org/2000/svg" xmlns:xlink="http://www.w3.org/1999/xlink" x="0px" y="0px"
	 width="72px" height="72px" viewBox="0 0 72 72" enable-background="new 0 0 72 72" xml:space="preserve">
<circle fill="#7E55FF" cx="18" cy="18" r="6"/>
<path fill="#15354C" d="M62,14H27.35c-0.7-3.42-3.72-6-7.35-6s-6.65,2.58-7.35,6H10c-1.1,0-2,0.9-2,2s0.9,2,2,2h2.94
	c1.02,2.91,3.8,5,7.06,5s6.04-2.09,7.06-5H62c0.55,0,1.05-0.22,1.41-0.59C63.78,17.05,64,16.55,64,16C64,14.9,63.1,14,62,14z M20,20
	c-1.55,0-2.93-0.79-3.74-2c-0.48-0.72-0.76-1.57-0.76-2.5c0-0.53,0.09-1.03,0.26-1.5c0.62-1.75,2.29-3,4.24-3s3.62,1.25,4.24,3
	c0.17,0.47,0.26,0.97,0.26,1.5c0,0.93-0.28,1.78-0.76,2.5C22.93,19.21,21.55,20,20,20z"/>
<circle fill="#FF50B0" cx="50" cy="38" r="6"/>
<path fill="#15354C" d="M62,34h-2.65c-0.699-3.42-3.72-6-7.35-6s-6.65,2.58-7.35,6H10c-1.1,0-2,0.9-2,2c0,1.1,0.9,2,2,2h34.939
	c1.021,2.91,3.801,5,7.061,5s6.04-2.09,7.061-5H62c0.55,0,1.05-0.221,1.41-0.59C63.78,37.05,64,36.55,64,36C64,34.9,63.1,34,62,34z
	 M52,40c-1.55,0-2.93-0.79-3.74-2c-0.48-0.721-0.76-1.57-0.76-2.5c0-0.53,0.09-1.03,0.26-1.5c0.62-1.75,2.29-3,4.24-3
	s3.62,1.25,4.24,3c0.17,0.47,0.26,0.97,0.26,1.5c0,0.93-0.279,1.779-0.76,2.5C54.93,39.21,53.55,40,52,40z"/>
<circle fill="#3EBFFF" cx="28" cy="58" r="6"/>
<path fill="#15354C" d="M62,54H37.35c-0.699-3.42-3.72-6-7.35-6s-6.65,2.58-7.35,6H10c-1.1,0-2,0.9-2,2s0.9,2,2,2h12.939
	c1.021,2.91,3.801,5,7.061,5s6.04-2.09,7.061-5H62c0.55,0,1.05-0.221,1.41-0.59C63.78,57.05,64,56.55,64,56C64,54.9,63.1,54,62,54z
	 M30,60c-1.55,0-2.93-0.79-3.74-2c-0.48-0.721-0.76-1.57-0.76-2.5c0-0.529,0.09-1.029,0.26-1.5c0.62-1.75,2.29-3,4.24-3
	s3.62,1.25,4.24,3c0.17,0.471,0.26,0.971,0.26,1.5c0,0.93-0.279,1.779-0.76,2.5C32.93,59.21,31.55,60,30,60z"/>
</svg>
