<?xml version="1.0" encoding="utf-8"?>
<!-- Generator: Adobe Illustrator 16.0.0, SVG Export Plug-In . SVG Version: 6.00 Build 0)  -->
<!DOCTYPE svg PUBLIC "-//W3C//DTD SVG 1.1//EN" "http://www.w3.org/Graphics/SVG/1.1/DTD/svg11.dtd">
<svg version="1.1" id="dollar" xmlns="http://www.w3.org/2000/svg" xmlns:xlink="http://www.w3.org/1999/xlink" x="0px" y="0px"
	 width="72px" height="72px" viewBox="0 0 72 72" enable-background="new 0 0 72 72" xml:space="preserve">
<rect id="fill" x="4" y="18.5" fill="#BBFFC0" width="56.5" height="39.5"/>
<g id="outline">
	<g>
		<path fill="#15354C" d="M63.75,13H8.25c-0.97,0-1.75,0.78-1.75,1.75v39c0,0.97,0.78,1.75,1.75,1.75h55.5
			c0.97,0,1.75-0.78,1.75-1.75v-39C65.5,13.78,64.72,13,63.75,13z M9.5,16h8.89c-0.66,4.59-4.3,8.23-8.89,8.89V16z M9.5,52.5v-8.39
			c4.42,0.63,7.97,4.04,8.81,8.39H9.5z M62.5,52.5h-8.31C55,48.31,58.31,45,62.5,44.19V52.5z M62.5,41.15
			c-5.84,0.869-10.48,5.51-11.35,11.35h-29.8c-0.9-6.01-5.77-10.74-11.85-11.41V27.91c6.24-0.69,11.22-5.67,11.91-11.91h29.68
			c0.67,6.08,5.4,10.95,11.41,11.85V41.15z M62.5,24.81c-4.35-0.84-7.76-4.39-8.39-8.81h8.39V24.81z"/>
	</g>
	<path fill="#15354C" d="M39,32h-1v-6h4c1.1,0,2-0.9,2-2s-0.9-2-2-2h-4v-2c0-1.1-0.9-2-2-2c-1.1,0-2,0.9-2,2v2h-1
		c-3.31,0-6,2.69-6,6v2c0,3.31,2.69,6,6,6h1v6h-4c-1.1,0-2,0.9-2,2s0.9,2,2,2h4v2c0,1.1,0.9,2,2,2c1.1,0,2-0.9,2-2v-2h1
		c3.31,0,6-2.69,6-6v-2C45,34.69,42.31,32,39,32z M33,32c-1.1,0-2-0.9-2-2v-2c0-1.1,0.9-2,2-2h1v6H33z M41,40c0,1.1-0.9,2-2,2h-1v-6
		h1c1.1,0,2,0.9,2,2V40z"/>
</g>
</svg>
