<?xml version="1.0" encoding="utf-8"?>
<!-- Generator: Adobe Illustrator 16.0.0, SVG Export Plug-In . SVG Version: 6.00 Build 0)  -->
<!DOCTYPE svg PUBLIC "-//W3C//DTD SVG 1.1//EN" "http://www.w3.org/Graphics/SVG/1.1/DTD/svg11.dtd">
<svg version="1.1" id="user" xmlns="http://www.w3.org/2000/svg" xmlns:xlink="http://www.w3.org/1999/xlink" x="0px" y="0px"
	 width="72px" height="72px" viewBox="0.5 144.5 72 72" enable-background="new 0.5 144.5 72 72" xml:space="preserve">
<g>
	<rect x="9.333" y="155.334" fill="#FFCACA" width="44.167" height="59.833"/>
</g>
<g>
	<path fill="#15354C" d="M13,145v67h47v-67H13z M57,204.5H16v-52h41V204.5z"/>
</g>
<g>
	<circle fill="#FFFFFF" cx="36.5" cy="208.5" r="2"/>
</g>
<g>
	<path fill="#FFFFFF" d="M41.5,149.5c0,0.553-0.447,1-1,1h-8c-0.552,0-1-0.447-1-1l0,0c0-0.553,0.448-1,1-1h8
		C41.053,148.5,41.5,148.947,41.5,149.5L41.5,149.5z"/>
</g>
<g>
	<path fill="#15354C" d="M53.75,185.75h-34.5v-24.5h34.5V185.75z M21.75,183.25h29.5v-19.5h-29.5V183.25z"/>
</g>
<g>
	<g>
		<path fill="#15354C" d="M19.25,200.25v4.25h2.5v-1.75h29.5v1.75h2.5v-4.25H19.25z"/>
	</g>
</g>
<g>
	<circle fill="#15354C" cx="20.5" cy="190.5" r="2"/>
</g>
<g>
	<circle fill="#15354C" cx="52.5" cy="156.5" r="2"/>
</g>
<g>
	<circle fill="#15354C" cx="46.5" cy="156.5" r="2"/>
</g>
<g>
	<circle fill="#15354C" cx="40.5" cy="156.5" r="2"/>
</g>
<g>
	<circle fill="#15354C" cx="31.5" cy="167.5" r="3"/>
</g>
<g>
	<rect x="24.5" y="189.5" fill="#15354C" width="28" height="2"/>
</g>
<g>
	<rect x="24.5" y="193.5" fill="#15354C" width="20" height="2"/>
</g>
<g>
	<polygon fill="#15354C" points="36.5,181.5 24.75,181.5 30.63,171.33 32.55,174.65 34.5,178.03 	"/>
</g>
<g>
	<polygon fill="#15354C" points="47.25,181.5 39.15,181.5 35.32,174.88 39.37,167.86 	"/>
</g>
</svg>
