<?xml version="1.0" encoding="utf-8"?>
<!-- Generator: Adobe Illustrator 16.0.0, SVG Export Plug-In . SVG Version: 6.00 Build 0)  -->
<!DOCTYPE svg PUBLIC "-//W3C//DTD SVG 1.1//EN" "http://www.w3.org/Graphics/SVG/1.1/DTD/svg11.dtd">
<svg version="1.1" id="Layer_2" xmlns="http://www.w3.org/2000/svg" xmlns:xlink="http://www.w3.org/1999/xlink" x="0px" y="0px"
	 width="72px" height="72px" viewBox="0 0 72 72" enable-background="new 0 0 72 72" xml:space="preserve">
<g>
	<path fill="#15354C" d="M20,49.5c-4.136,0-7.5-3.364-7.5-7.5s3.364-7.5,7.5-7.5s7.5,3.364,7.5,7.5S24.136,49.5,20,49.5z M20,37.5
		c-2.481,0-4.5,2.019-4.5,4.5s2.019,4.5,4.5,4.5s4.5-2.019,4.5-4.5S22.481,37.5,20,37.5z"/>
</g>
<g>
	<path fill="#15354C" d="M52,49.5c-4.136,0-7.5-3.364-7.5-7.5s3.364-7.5,7.5-7.5s7.5,3.364,7.5,7.5S56.136,49.5,52,49.5z M52,37.5
		c-2.481,0-4.5,2.019-4.5,4.5s2.019,4.5,4.5,4.5s4.5-2.019,4.5-4.5S54.481,37.5,52,37.5z"/>
</g>
<g>
	<path fill="#15354C" d="M26,54.5H14c-4.14,0-7.5,3.36-7.5,7.5v7.5h27V62C33.5,57.86,30.14,54.5,26,54.5z M30.5,66.5h-21V62
		c0-2.48,2.02-4.5,4.5-4.5h12c2.48,0,4.5,2.02,4.5,4.5V66.5z"/>
</g>
<g>
	<path fill="#15354C" d="M58,54.5H46c-4.14,0-7.5,3.36-7.5,7.5v7.5h27V62C65.5,57.86,62.14,54.5,58,54.5z M62.5,66.5h-21V62
		c0-2.48,2.02-4.5,4.5-4.5h12c2.48,0,4.5,2.02,4.5,4.5V66.5z"/>
</g>
<polygon fill="#FFD2F2" points="16,10.125 49.875,10.125 49.875,27.875 26.125,27.875 16,33.75 "/>
<path fill="#15354C" d="M53.5,4.5h-33c-1.1,0-2,0.9-2,2v26.15l11.92-7.15h23.1c0.971,0,1.771-0.67,1.98-1.57V6.5
	C55.5,5.4,54.6,4.5,53.5,4.5z M52.5,22.5H29.58l-8.08,4.85V7.5h31V22.5z"/>
<rect x="45.031" y="10.5" fill="#15354C" width="0" height="0"/>
<path fill="#15354C" d="M48,12c0,0.83-0.67,1.5-1.5,1.5H27.52c-0.83,0-1.5-0.67-1.5-1.5s0.67-1.5,1.5-1.5H46.5
	C47.33,10.5,48,11.17,48,12z"/>
<path fill="#15354C" d="M46,18c0,0.83-0.67,1.5-1.5,1.5H27.52c-0.83,0-1.5-0.67-1.5-1.5s0.67-1.5,1.5-1.5H44.5
	C45.33,16.5,46,17.17,46,18z"/>
</svg>
