<?xml version="1.0" encoding="utf-8"?>
<!-- Generator: Adobe Illustrator 16.0.0, SVG Export Plug-In . SVG Version: 6.00 Build 0)  -->
<!DOCTYPE svg PUBLIC "-//W3C//DTD SVG 1.1//EN" "http://www.w3.org/Graphics/SVG/1.1/DTD/svg11.dtd">
<svg version="1.1" id="user" xmlns="http://www.w3.org/2000/svg" xmlns:xlink="http://www.w3.org/1999/xlink" x="0px" y="0px"
	 width="72px" height="72px" viewBox="0.5 144.5 72 72" enable-background="new 0.5 144.5 72 72" xml:space="preserve">
<g>
	<polygon fill="#E4FFA9" points="62.695,214.696 50.503,214.666 38.508,215.361 26.513,214.73 14.498,214.698 2.488,214.512 
		3.093,202.507 2.757,190.505 2.916,178.512 2.987,166.504 2.468,154.48 14.495,154.596 26.497,154.957 38.483,153.787 
		50.501,153.939 61.982,155.018 63.164,166.498 61.844,178.49 62.128,190.496 62.993,202.493 	"/>
</g>
<g opacity="0.6">
	<path fill="#FFC88D" d="M109.5,197.551h-35v-7.628c0-5.196,4.228-9.423,9.423-9.423h16.154c5.196,0,9.423,4.227,9.423,9.423
		V197.551z"/>
</g>
<g>
	<path fill="#15354C" d="M104.1,156.5h-15c-0.9,0-1.77,0.11-2.6,0.32c1.06,0.72,1.979,1.63,2.71,2.68h14.89c4.14,0,7.5,3.36,7.5,7.5
		v5.5H91.1v3h23.5V167C114.6,161.21,109.89,156.5,104.1,156.5z"/>
</g>
<g>
	<polygon fill="none" stroke="#15354C" stroke-width="3" stroke-miterlimit="10" points="66.695,210.696 54.503,210.666 
		42.508,211.361 30.513,210.73 18.498,210.698 6.488,210.512 7.093,198.507 6.757,186.505 6.916,174.512 6.987,162.504 
		6.468,150.48 18.495,150.596 30.497,150.957 42.483,149.787 54.501,149.939 65.982,151.018 67.164,162.498 65.844,174.49 
		66.128,186.496 66.993,198.493 	"/>
</g>
<g>
	<polygon fill="none" stroke="#15354C" stroke-width="4" stroke-miterlimit="10" points="66.5,180.171 51.505,180.385 36.5,180.262 
		21.495,180.501 6.5,180.448 21.495,180.807 36.5,180.445 51.505,180.11 	"/>
</g>
<g>
	<polyline fill="none" stroke="#15354C" stroke-width="3" stroke-miterlimit="10" points="6.494,150.511 20.787,158.409 
		35.519,165.444 49.844,173.293 64.451,180.595 	"/>
</g>
<g>
	<polyline fill="none" stroke="#15354C" stroke-width="3" stroke-miterlimit="10" points="6.416,180.332 21.308,172.62 
		36.682,165.869 51.571,158.145 66.601,150.702 	"/>
</g>
<g>
	<polyline fill="none" stroke="#15354C" stroke-width="3" stroke-miterlimit="10" points="14.5,186.99 30.5,186.979 46.5,186.258 	
		"/>
</g>
<g>
	<line fill="none" stroke="#15354C" stroke-width="3" stroke-miterlimit="10" x1="14.5" y1="192.898" x2="30.5" y2="192.583"/>
</g>
<g>
	<polygon fill="#15354C" points="46.586,206.729 30.5,206.335 14.55,206.366 14.436,200.329 30.5,200.988 46.404,200.747 	"/>
</g>
</svg>
