<svg style="isolation:isolate" viewBox="0 0 120 120" ><defs><clipPath id="_clipPath_WwXwyVcGRv6HsA0OO4ugENajXbgYKLWd"><rect/></clipPath></defs><g clip-path="url(#_clipPath_WwXwyVcGRv6HsA0OO4ugENajXbgYKLWd)"><g><path d=" M 97.022 41.493 L 80.333 64.048 L 80.333 64.048 C 81.525 65.829 82.087 68.051 81.75 70.346 C 81.038 75.198 76.572 78.551 71.785 77.828 L 71.785 77.828 C 66.998 77.106 63.69 72.58 64.403 67.728 C 64.452 67.389 64.521 67.057 64.606 66.734 L 52.002 58.208 L 52.002 58.208 C 50.219 59.492 47.964 60.107 45.632 59.755 L 45.632 59.755 C 45.234 59.695 44.846 59.608 44.47 59.498 L 44.47 59.498 L 27.884 81.915 L 27.884 81.915 C 29.174 83.729 29.795 86.035 29.444 88.419 C 28.732 93.272 24.266 96.625 19.479 95.902 L 19.479 95.902 C 14.692 95.18 11.384 90.654 12.097 85.801 C 12.809 80.949 17.275 77.596 22.062 78.319 C 22.361 78.364 22.654 78.424 22.941 78.498 L 39.651 55.927 C 38.469 54.15 37.914 51.938 38.25 49.654 C 38.962 44.802 43.428 41.449 48.215 42.172 C 53.002 42.894 56.31 47.42 55.597 52.272 C 55.548 52.609 55.48 52.939 55.396 53.261 L 68.003 61.789 L 68.003 61.789 C 69.785 60.507 72.038 59.894 74.368 60.245 C 74.756 60.304 75.134 60.387 75.501 60.494 L 92.099 38.061 C 90.821 36.251 90.207 33.955 90.556 31.581 C 91.268 26.728 95.734 23.375 100.521 24.098 C 105.308 24.82 108.616 29.346 107.903 34.199 C 107.191 39.051 102.725 42.404 97.938 41.681 L 97.938 41.681 C 97.626 41.634 97.321 41.571 97.022 41.493 Z  M 20.39 89.97 C 19.72 89.86 19.11 89.52 18.67 89 C 18.24 88.49 18 87.83 18 87.15 C 18 86.97 18.01 86.81 18.04 86.66 C 18.12 85.99 18.45 85.37 18.95 84.93 C 19.46 84.48 20.11 84.23 20.78 84.22 C 20.9 84.22 21.03 84.23 21.15 84.25 C 21.82 84.36 22.43 84.7 22.87 85.22 C 23.31 85.74 23.55 86.4 23.54 87.09 C 23.54 87.25 23.53 87.41 23.51 87.57 C 23.42 88.23 23.09 88.85 22.59 89.29 C 22.08 89.74 21.43 89.99 20.76 90 C 20.64 90 20.51 89.99 20.39 89.97 L 20.39 89.97 L 20.39 89.97 L 20.39 89.97 L 20.39 89.97 Z  M 46.54 53.82 C 45.87 53.72 45.26 53.37 44.83 52.86 C 44.39 52.34 44.15 51.68 44.15 51 C 44.15 50.83 44.16 50.67 44.19 50.51 C 44.28 49.84 44.6 49.23 45.11 48.78 C 45.61 48.33 46.26 48.08 46.93 48.07 C 47.06 48.07 47.18 48.08 47.3 48.1 C 47.98 48.21 48.59 48.56 49.02 49.08 C 49.46 49.6 49.7 50.26 49.69 50.94 C 49.69 51.1 49.68 51.26 49.66 51.42 C 49.57 52.09 49.24 52.7 48.74 53.15 C 48.24 53.59 47.59 53.84 46.91 53.85 C 46.79 53.85 46.67 53.84 46.54 53.82 L 46.54 53.82 L 46.54 53.82 L 46.54 53.82 Z  M 72.7 71.9 C 72.03 71.79 71.42 71.45 70.98 70.93 C 70.54 70.41 70.3 69.75 70.31 69.08 C 70.31 68.9 70.32 68.74 70.34 68.58 C 70.43 67.91 70.76 67.3 71.26 66.85 C 71.76 66.41 72.41 66.16 73.09 66.15 C 73.21 66.15 73.33 66.16 73.46 66.18 C 74.13 66.28 74.74 66.63 75.18 67.15 C 75.62 67.67 75.85 68.33 75.85 69.01 C 75.85 69.17 75.84 69.33 75.81 69.49 C 75.72 70.16 75.4 70.77 74.89 71.22 C 74.39 71.67 73.74 71.92 73.07 71.93 C 72.94 71.93 72.82 71.92 72.7 71.9 L 72.7 71.9 L 72.7 71.9 Z  M 98.85 35.75 C 98.18 35.64 97.57 35.3 97.13 34.78 C 96.69 34.26 96.46 33.61 96.46 32.93 C 96.46 32.75 96.47 32.59 96.49 32.43 C 96.58 31.77 96.91 31.15 97.41 30.71 C 97.92 30.26 98.57 30.01 99.24 30 C 99.36 30 99.49 30.01 99.61 30.03 C 100.28 30.14 100.89 30.48 101.33 31 C 101.77 31.52 102.01 32.18 102 32.86 C 102 33.03 101.99 33.19 101.96 33.34 C 101.88 34.01 101.55 34.63 101.05 35.07 C 100.54 35.52 99.89 35.77 99.22 35.78 C 99.1 35.78 98.97 35.77 98.85 35.75 L 98.85 35.75 Z " fill-rule="evenodd" fill="rgb(0,0,0)"/></g></g></svg>