<?xml version="1.0" encoding="utf-8"?>
<!-- Generator: Adobe Illustrator 16.0.0, SVG Export Plug-In . SVG Version: 6.00 Build 0)  -->
<!DOCTYPE svg PUBLIC "-//W3C//DTD SVG 1.1//EN" "http://www.w3.org/Graphics/SVG/1.1/DTD/svg11.dtd">
<svg version="1.1" id="linkedin_1_" xmlns="http://www.w3.org/2000/svg" xmlns:xlink="http://www.w3.org/1999/xlink" x="0px"
	 y="0px" width="40px" height="48px" viewBox="0.042 -7.979 40 48" enable-background="new 0.042 -7.979 40 48"
	 xml:space="preserve">
<g>
	<path id="n" d="M21.486,26.646c-1.72,0-3.397,0-5.104,0c0-5.213,0-10.416,0-15.65c1.684,0,3.362,0,5.087,0c0,0.678,0,1.364,0,2.148
		c0.106-0.116,0.149-0.152,0.18-0.197c1.315-1.963,3.2-2.594,5.422-2.279c2.666,0.377,4.354,2.174,4.807,5.022
		c0.092,0.573,0.154,1.159,0.156,1.739c0.014,2.965,0.008,5.932,0.006,8.898c0,0.098-0.008,0.198-0.016,0.318
		c-1.699,0-3.381,0-5.125,0c0-0.145,0-0.291,0-0.438c0-2.623,0.01-5.248-0.008-7.871c-0.004-0.553-0.051-1.121-0.182-1.654
		c-0.494-2.002-2.792-2.65-4.274-1.227c-0.687,0.66-0.957,1.481-0.953,2.432c0.013,2.763,0.004,5.527,0.004,8.291
		C21.486,26.328,21.486,26.477,21.486,26.646z"/>
	<path id="li-i" d="M8.395,10.992c1.697,0,3.387,0,5.096,0c0,5.228,0,10.43,0,15.654c-1.702,0-3.383,0-5.096,0
		C8.395,21.437,8.395,16.226,8.395,10.992z"/>
	<path id="dot" d="M10.921,8.818c-2.09,0-3.412-1.847-2.672-3.735c0.485-1.244,1.84-1.898,3.362-1.626
		c1.619,0.289,2.576,1.832,2.129,3.432C13.41,8.082,12.331,8.818,10.921,8.818z"/>
</g>
</svg>
