<?xml version="1.0" encoding="utf-8"?>
<!-- Generator: Adobe Illustrator 16.0.0, SVG Export Plug-In . SVG Version: 6.00 Build 0)  -->
<!DOCTYPE svg PUBLIC "-//W3C//DTD SVG 1.1//EN" "http://www.w3.org/Graphics/SVG/1.1/DTD/svg11.dtd">
<svg version="1.1" id="envelope" xmlns="http://www.w3.org/2000/svg" xmlns:xlink="http://www.w3.org/1999/xlink" x="0px" y="0px"
	 width="48px" height="48px" viewBox="0 0 48 48" enable-background="new 0 0 48 48" xml:space="preserve">
<g id="border">
	<path fill="#FFFFFF" d="M24,47C11.318,47,1,36.682,1,24S11.318,1,24,1s23,10.318,23,23S36.682,47,24,47z"/>
	<path d="M24,2c12.131,0,22,9.869,22,22s-9.869,22-22,22S2,36.131,2,24S11.869,2,24,2 M24,0C10.745,0,0,10.745,0,24s10.745,24,24,24
		s24-10.745,24-24S37.255,0,24,0L24,0z"/>
</g>
<path id="n" fill-rule="evenodd" clip-rule="evenodd" d="M25.444,35.625c-1.72,0-3.398,0-5.105,0c0-5.213,0-10.416,0-15.65
	c1.684,0,3.362,0,5.087,0c0,0.677,0,1.364,0,2.148c0.106-0.116,0.149-0.153,0.18-0.197c1.315-1.963,3.198-2.594,5.421-2.279
	c2.667,0.377,4.355,2.173,4.808,5.022c0.091,0.573,0.153,1.159,0.156,1.739c0.014,2.965,0.007,5.932,0.006,8.898
	c0,0.099-0.009,0.199-0.016,0.319c-1.699,0-3.381,0-5.126,0c0-0.145,0-0.291,0-0.437c0-2.624,0.01-5.248-0.008-7.872
	c-0.003-0.553-0.05-1.121-0.18-1.654c-0.494-2.002-2.792-2.65-4.275-1.226c-0.686,0.659-0.956,1.481-0.953,2.431
	c0.013,2.763,0.005,5.527,0.005,8.291C25.444,35.306,25.444,35.455,25.444,35.625z"/>
<path id="li-i" fill-rule="evenodd" clip-rule="evenodd" d="M12.352,19.97c1.698,0,3.387,0,5.096,0c0,5.228,0,10.431,0,15.655
	c-1.702,0-3.383,0-5.096,0C12.352,30.415,12.352,25.204,12.352,19.97z"/>
<path id="dot" fill-rule="evenodd" clip-rule="evenodd" d="M14.879,17.797c-2.09,0-3.412-1.847-2.672-3.735
	c0.486-1.244,1.84-1.898,3.362-1.626c1.619,0.289,2.576,1.832,2.129,3.432C17.367,17.06,16.288,17.797,14.879,17.797z"/>
</svg>
